<svg width="50" height="56" viewBox="0 0 50 56" fill="none" xmlns="http://www.w3.org/2000/svg">
<path d="M0.19043 0.0693359H44.0005C47.3142 0.0693359 50.0005 2.75563 50.0005 6.06934V49.2417C50.0005 52.5555 47.3142 55.2417 44.0005 55.2417H0.19043V0.0693359Z" fill="#F5C34B"/>
<path d="M22.2214 18.3975C18.1048 18.3975 14.7515 22.1118 14.7515 26.6715C14.7515 31.2313 18.1048 34.9528 22.2214 34.9528C23.9797 34.9528 25.5968 34.2703 26.8748 33.1371L29.9863 36.5817C30.1434 36.7485 30.3531 36.8404 30.5706 36.838C30.7881 36.8355 30.9961 36.7388 31.15 36.5686C31.3039 36.3983 31.3915 36.1681 31.394 35.9272C31.3966 35.6863 31.3138 35.4539 31.1635 35.2797L28.052 31.8332C29.0759 30.4154 29.6929 28.6214 29.6929 26.6715C29.6929 22.1118 26.3379 18.3975 22.2214 18.3975ZM22.2214 20.2366C25.4406 20.2366 28.0309 23.1057 28.0309 26.6715C28.0309 30.2374 25.4406 33.1137 22.2214 33.1137C19.0021 33.1137 16.4118 30.2374 16.4118 26.6715C16.4118 23.1057 19.0021 20.2366 22.2214 20.2366Z" fill="#443297"/>
</svg>
