<svg width="200.000000" height="211.000000" viewBox="0 0 200 211" fill="none" xmlns="http://www.w3.org/2000/svg" xmlns:xlink="http://www.w3.org/1999/xlink">
	<desc>
			Created with Pixso.
	</desc>
	<defs>
		<clipPath id="clip175_27">
			<rect id="shopping-cart-fill" width="200.000000" height="211.000000" fill="white" fill-opacity="0"/>
		</clipPath>
	</defs>
	<rect id="shopping-cart-fill" width="200.000000" height="211.000000" fill="#FFFFFF" fill-opacity="0"/>
	<g clip-path="url(#clip175_27)">
		<path id="矢量 96" d="M50 79.12L166.15 79.12L170.31 61.54L66.66 61.54L66.66 43.95L181 43.95C182.26 43.95 183.51 44.26 184.65 44.84C185.79 45.43 186.79 46.28 187.56 47.34C188.34 48.39 188.89 49.62 189.15 50.92C189.41 52.23 189.39 53.59 189.08 54.88L168.25 142.8C167.79 144.7 166.75 146.39 165.29 147.59C163.82 148.8 162.02 149.45 160.16 149.45L41.66 149.45C39.45 149.45 37.33 148.53 35.77 146.88C34.21 145.23 33.33 142.99 33.33 140.66L33.33 35.16L16.66 35.16L16.66 17.58L41.66 17.58C43.87 17.58 45.99 18.5 47.55 20.15C49.12 21.8 50 24.04 50 26.37L50 79.12ZM50 202.2C45.57 202.2 41.34 200.35 38.21 197.05C35.08 193.76 33.33 189.28 33.33 184.62C33.33 179.96 35.08 175.49 38.21 172.19C41.34 168.89 45.57 167.04 50 167.04C54.41 167.04 58.65 168.89 61.78 172.19C64.91 175.49 66.66 179.96 66.66 184.62C66.66 189.28 64.91 193.76 61.78 197.05C58.65 200.35 54.41 202.2 50 202.2ZM150 202.2C145.58 202.2 141.34 200.35 138.21 197.05C135.08 193.76 133.33 189.28 133.33 184.62C133.33 179.96 135.08 175.49 138.21 172.19C141.34 168.89 145.58 167.04 150 167.04C154.42 167.04 158.65 168.89 161.78 172.19C164.91 175.49 166.66 179.96 166.66 184.62C166.66 189.28 164.91 193.76 161.78 197.05C158.65 200.35 154.42 202.2 150 202.2Z" fill="#444444" fill-opacity="1.000000" fill-rule="evenodd"/>
	</g>
</svg>
